<svg width="1263" height="434" viewBox="0 0 1263 434" fill="none" xmlns="http://www.w3.org/2000/svg">
<path d="M-27.2628 63.0355L-57 12V458.759C-57 477.058 -42.059 491.836 -23.7613 491.634L1227.49 477.858C1245.5 477.66 1260 462.999 1260 444.983V397H1075.26L938.371 387.151C932.452 386.725 926.759 384.705 921.895 381.306L860.908 338.678C857.898 336.574 855.262 333.981 853.109 331.006L813.817 276.713C810.171 271.675 805.17 267.774 799.395 265.463L726.823 236.43C722.009 234.504 717.719 231.467 714.303 227.567L665.823 172.215C659.58 165.088 650.566 161 641.091 161H540.126C536.403 161 532.706 160.367 529.194 159.129L450.977 131.55C448.997 130.851 446.955 130.345 444.878 130.036L263 103L162.561 74.4348C156.955 72.8403 151.025 72.765 145.38 74.2166L74.0883 92.5487C69.0993 93.8316 63.8786 93.9242 58.8473 92.8191L-5.9098 78.595C-14.89 76.6224 -22.6339 70.9796 -27.2628 63.0355Z" stroke="#A1EFD8" stroke-width="6"/>
</svg>
