<svg width="1920" height="874" viewBox="0 0 1920 874" fill="none" xmlns="http://www.w3.org/2000/svg">
<g clip-path="url(#clip0_257_1895)">
<line x1="-40" y1="73.5" x2="1960" y2="73.5" stroke="#47D7AC" stroke-opacity="0.04"/>
<line x1="-40" y1="173.5" x2="1960" y2="173.5" stroke="#47D7AC" stroke-opacity="0.04"/>
<line x1="-40" y1="273.5" x2="1960" y2="273.5" stroke="#47D7AC" stroke-opacity="0.04"/>
<line x1="-40" y1="373.5" x2="1960" y2="373.5" stroke="#47D7AC" stroke-opacity="0.04"/>
<line x1="-40" y1="473.5" x2="1960" y2="473.5" stroke="#47D7AC" stroke-opacity="0.04"/>
<line x1="-40" y1="573.5" x2="1960" y2="573.5" stroke="#47D7AC" stroke-opacity="0.04"/>
<line x1="-40" y1="673.5" x2="1960" y2="673.5" stroke="#47D7AC" stroke-opacity="0.04"/>
<line x1="-40" y1="773.5" x2="1960" y2="773.5" stroke="#47D7AC" stroke-opacity="0.04"/>
<line x1="40.5" y1="-1626" x2="40.5001" y2="874" stroke="#47D7AC" stroke-opacity="0.04"/>
<line x1="120.5" y1="-1626" x2="120.5" y2="874" stroke="#47D7AC" stroke-opacity="0.04"/>
<line x1="200.5" y1="-1626" x2="200.5" y2="874" stroke="#47D7AC" stroke-opacity="0.04"/>
<line x1="280.5" y1="-1626" x2="280.501" y2="874" stroke="#47D7AC" stroke-opacity="0.04"/>
<line x1="360.5" y1="-1626" x2="360.501" y2="874" stroke="#47D7AC" stroke-opacity="0.04"/>
<line x1="440.5" y1="-1626" x2="440.501" y2="874" stroke="#47D7AC" stroke-opacity="0.04"/>
<line x1="520.5" y1="-1626" x2="520.501" y2="874" stroke="#47D7AC" stroke-opacity="0.04"/>
<line x1="600.501" y1="-1626" x2="600.501" y2="874" stroke="#47D7AC" stroke-opacity="0.04"/>
<line x1="680.501" y1="-1626" x2="680.501" y2="874" stroke="#47D7AC" stroke-opacity="0.04"/>
<line x1="760.501" y1="-1626" x2="760.501" y2="874" stroke="#47D7AC" stroke-opacity="0.04"/>
<line x1="840.501" y1="-1626" x2="840.501" y2="874" stroke="#47D7AC" stroke-opacity="0.04"/>
<line x1="920.501" y1="-1626" x2="920.501" y2="874" stroke="#47D7AC" stroke-opacity="0.04"/>
<line x1="1000.5" y1="-1626" x2="1000.5" y2="874" stroke="#47D7AC" stroke-opacity="0.04"/>
<line x1="1080.5" y1="-1626" x2="1080.5" y2="874" stroke="#47D7AC" stroke-opacity="0.04"/>
<line x1="1160.5" y1="-1626" x2="1160.5" y2="874" stroke="#47D7AC" stroke-opacity="0.04"/>
<line x1="1240.5" y1="-1626" x2="1240.5" y2="874" stroke="#47D7AC" stroke-opacity="0.04"/>
<line x1="1320.5" y1="-1626" x2="1320.5" y2="874" stroke="#47D7AC" stroke-opacity="0.04"/>
<line x1="1400.5" y1="-1626" x2="1400.5" y2="874" stroke="#47D7AC" stroke-opacity="0.04"/>
<line x1="1480.5" y1="-1626" x2="1480.5" y2="874" stroke="#47D7AC" stroke-opacity="0.04"/>
<line x1="1560.5" y1="-1626" x2="1560.5" y2="874" stroke="#47D7AC" stroke-opacity="0.04"/>
<line x1="1640.5" y1="-1626" x2="1640.5" y2="874" stroke="#47D7AC" stroke-opacity="0.04"/>
<line x1="1720.5" y1="-1626" x2="1720.5" y2="874" stroke="#47D7AC" stroke-opacity="0.04"/>
<line x1="1800.5" y1="-1626" x2="1800.5" y2="874" stroke="#47D7AC" stroke-opacity="0.04"/>
<line x1="1880.5" y1="-1626" x2="1880.5" y2="874" stroke="#47D7AC" stroke-opacity="0.04"/>
</g>
<defs>
<clipPath id="clip0_257_1895">
<rect width="1920" height="874" fill="white"/>
</clipPath>
</defs>
</svg>
