<svg width="1920" height="907" viewBox="0 0 1920 907" fill="none" xmlns="http://www.w3.org/2000/svg">
<line y1="79.5" x2="1920" y2="79.5" stroke="#47D7AC" stroke-opacity="0.1"/>
<line y1="239.5" x2="1920" y2="239.5" stroke="#47D7AC" stroke-opacity="0.1"/>
<line y1="399.5" x2="1920" y2="399.5" stroke="#47D7AC" stroke-opacity="0.1"/>
<line y1="559.5" x2="1920" y2="559.5" stroke="#47D7AC" stroke-opacity="0.1"/>
<line y1="159.5" x2="1920" y2="159.5" stroke="#47D7AC" stroke-opacity="0.1"/>
<line y1="319.5" x2="1920" y2="319.5" stroke="#47D7AC" stroke-opacity="0.1"/>
<line y1="479.5" x2="1920" y2="479.5" stroke="#47D7AC" stroke-opacity="0.1"/>
<line y1="639.5" x2="1920" y2="639.5" stroke="#47D7AC" stroke-opacity="0.1"/>
<line y1="719.5" x2="1920" y2="719.5" stroke="#47D7AC" stroke-opacity="0.1"/>
<line y1="799.5" x2="1920" y2="799.5" stroke="#47D7AC" stroke-opacity="0.1"/>
<line y1="879.5" x2="1920" y2="879.5" stroke="#47D7AC" stroke-opacity="0.1"/>
<line x1="80.5" y1="-2.18557e-08" x2="80.5" y2="1127" stroke="#47D7AC" stroke-opacity="0.1"/>
<line x1="240.5" y1="-2.18557e-08" x2="240.5" y2="1127" stroke="#47D7AC" stroke-opacity="0.1"/>
<line x1="400.5" y1="-2.18557e-08" x2="400.5" y2="1127" stroke="#47D7AC" stroke-opacity="0.1"/>
<line x1="560.5" y1="-2.18557e-08" x2="560.5" y2="1127" stroke="#47D7AC" stroke-opacity="0.1"/>
<line x1="720.5" y1="-2.18557e-08" x2="720.5" y2="1127" stroke="#47D7AC" stroke-opacity="0.1"/>
<line x1="880.5" y1="-2.18557e-08" x2="880.5" y2="1127" stroke="#47D7AC" stroke-opacity="0.1"/>
<line x1="1040.5" y1="-2.18557e-08" x2="1040.5" y2="1127" stroke="#47D7AC" stroke-opacity="0.1"/>
<line x1="1200.5" y1="-2.18557e-08" x2="1200.5" y2="1127" stroke="#47D7AC" stroke-opacity="0.1"/>
<line x1="1360.5" y1="-2.18557e-08" x2="1360.5" y2="1127" stroke="#47D7AC" stroke-opacity="0.1"/>
<line x1="1520.5" y1="-2.18557e-08" x2="1520.5" y2="1127" stroke="#47D7AC" stroke-opacity="0.1"/>
<line x1="1680.5" y1="-2.18557e-08" x2="1680.5" y2="1127" stroke="#47D7AC" stroke-opacity="0.1"/>
<line x1="1840.5" y1="-2.18557e-08" x2="1840.5" y2="1127" stroke="#47D7AC" stroke-opacity="0.1"/>
<line x1="160.5" y1="-2.18557e-08" x2="160.5" y2="1127" stroke="#47D7AC" stroke-opacity="0.1"/>
<line x1="320.5" y1="-2.18557e-08" x2="320.5" y2="1127" stroke="#47D7AC" stroke-opacity="0.1"/>
<line x1="480.5" y1="-2.18557e-08" x2="480.5" y2="1127" stroke="#47D7AC" stroke-opacity="0.1"/>
<line x1="640.5" y1="-2.18557e-08" x2="640.5" y2="1127" stroke="#47D7AC" stroke-opacity="0.1"/>
<line x1="800.5" y1="-2.18557e-08" x2="800.5" y2="1127" stroke="#47D7AC" stroke-opacity="0.1"/>
<line x1="960.5" y1="-2.18557e-08" x2="960.5" y2="1127" stroke="#47D7AC" stroke-opacity="0.1"/>
<line x1="1120.5" y1="-2.18557e-08" x2="1120.5" y2="1127" stroke="#47D7AC" stroke-opacity="0.1"/>
<line x1="1280.5" y1="-2.18557e-08" x2="1280.5" y2="1127" stroke="#47D7AC" stroke-opacity="0.1"/>
<line x1="1440.5" y1="-2.18557e-08" x2="1440.5" y2="1127" stroke="#47D7AC" stroke-opacity="0.1"/>
<line x1="1600.5" y1="-2.18557e-08" x2="1600.5" y2="1127" stroke="#47D7AC" stroke-opacity="0.1"/>
<line x1="1760.5" y1="-2.18557e-08" x2="1760.5" y2="1127" stroke="#47D7AC" stroke-opacity="0.1"/>
<g opacity="0.3" filter="url(#filter0_f_144_27604)">
<ellipse cx="2534" cy="477.5" rx="534" ry="162.5" fill="#47D7AC"/>
</g>
<defs>
<filter id="filter0_f_144_27604" x="1800" y="115" width="1468" height="725" filterUnits="userSpaceOnUse" color-interpolation-filters="sRGB">
<feFlood flood-opacity="0" result="BackgroundImageFix"/>
<feBlend mode="normal" in="SourceGraphic" in2="BackgroundImageFix" result="shape"/>
<feGaussianBlur stdDeviation="100" result="effect1_foregroundBlur_144_27604"/>
</filter>
</defs>
</svg>
