<svg width="1920" height="527" viewBox="0 0 1920 527" fill="none" xmlns="http://www.w3.org/2000/svg">
<path d="M1924.5 3L1787.14 112.732C1782.42 116.504 1776.75 118.902 1770.75 119.661L1634.17 136.965C1628.8 137.645 1623.36 136.992 1618.31 135.064L1512.93 94.8387C1507.5 92.7649 1501.61 92.1692 1495.87 93.1123L1390.04 110.508C1386.05 111.164 1382.21 112.55 1378.72 114.599L1228.55 202.78C1218.33 208.786 1205.66 208.817 1195.4 202.862L1072.7 131.63C1058.32 123.28 1039.97 126.985 1029.95 140.261L904.191 306.934C902.405 309.3 900.308 311.415 897.955 313.219L637.676 512.86C628.295 520.055 615.772 521.66 604.88 517.061L424.171 440.771C415.479 437.102 405.63 437.343 397.129 441.434L234.725 519.58C228.1 522.768 220.598 523.643 213.417 522.066L0 475.194" stroke="#47D7AC" stroke-opacity="0.1" stroke-width="6.57534"/>
</svg>
